<svg xmlns="http://www.w3.org/2000/svg" viewBox="0 0 720 220" width="720" height="220" role="img" aria-label="Response time over time">
<style>
  :root { color-scheme: light dark; }
  .bg { fill: #ffffff; }
  .grid { stroke: #e5e7eb; stroke-width: 1; }
  .axis { fill: #6b7280; font-size: 10px; }
  .title { fill: #111827; font-size: 13px; font-weight: 600; }
  .sub { fill: #6b7280; font-size: 10px; }
  .line { stroke: #6366f1; stroke-width: 2; fill: none; stroke-linejoin: round; stroke-linecap: round; }
  .area { fill: url(#fade); }
  .dot-degraded { fill: #f59e0b; }
  .dot-down { fill: #ef4444; }
  .empty { fill: #9ca3af; font-size: 12px; }
  @media (prefers-color-scheme: dark) {
    .bg { fill: #0b0f19; }
    .grid { stroke: #1f2937; }
    .axis, .sub { fill: #9ca3af; }
    .title { fill: #f3f4f6; }
    .line { stroke: #818cf8; }
  }
</style>
<defs>
  <linearGradient id="fade" x1="0" y1="0" x2="0" y2="1">
    <stop offset="0%" stop-color="#6366f1" stop-opacity="0.28" />
    <stop offset="100%" stop-color="#6366f1" stop-opacity="0" />
  </linearGradient>
</defs>
<rect class="bg" width="720" height="220" rx="8" />
<text class="title" x="48" y="18">HRM Suite — response time</text><text class="sub" x="704" y="18" text-anchor="end">mean 530 ms · peak 9992 ms · 48 samples</text><line class="grid" x1="48" y1="194.0" x2="704" y2="194.0" /><text class="axis" x="42" y="197" text-anchor="end">0</text><line class="grid" x1="48" y1="152.5" x2="704" y2="152.5" /><text class="axis" x="42" y="155.5" text-anchor="end">3750</text><line class="grid" x1="48" y1="111.0" x2="704" y2="111.0" /><text class="axis" x="42" y="114" text-anchor="end">7500</text><line class="grid" x1="48" y1="69.5" x2="704" y2="69.5" /><text class="axis" x="42" y="72.5" text-anchor="end">11250</text><line class="grid" x1="48" y1="28.0" x2="704" y2="28.0" /><text class="axis" x="42" y="31" text-anchor="end">15000</text><line class="grid" stroke-dasharray="4 4" x1="48" y1="166.3" x2="704" y2="166.3" /><path class="area" d="M48.0,190.7 L48.0,190.7 L59.4,190.1 L76.0,191.0 L86.0,190.5 L96.3,190.3 L108.7,190.9 L126.5,190.8 L136.7,190.4 L146.2,190.6 L158.2,190.4 L178.6,191.4 L200.1,190.2 L209.1,190.7 L226.9,190.9 L238.1,189.4 L247.2,190.5 L257.9,190.2 L275.9,188.3 L287.5,83.4 L296.7,190.7 L307.6,190.5 L326.2,190.5 L338.8,190.4 L357.0,189.8 L374.7,190.4 L385.9,189.8 L395.3,191.3 L406.0,190.7 L422.5,190.3 L432.0,190.8 L442.2,190.7 L456.5,190.3 L473.4,189.0 L482.9,190.7 L492.2,189.9 L505.0,190.1 L525.8,191.0 L547.5,190.7 L556.2,191.0 L574.1,190.0 L593.8,190.5 L604.4,190.2 L623.2,190.9 L644.1,189.3 L654.4,189.6 L673.0,189.3 L694.0,190.8 L704.0,190.6 L704.0,194.0 L48.0,194.0 Z" /><path class="line" d="M48.0,190.7 L59.4,190.1 L76.0,191.0 L86.0,190.5 L96.3,190.3 L108.7,190.9 L126.5,190.8 L136.7,190.4 L146.2,190.6 L158.2,190.4 L178.6,191.4 L200.1,190.2 L209.1,190.7 L226.9,190.9 L238.1,189.4 L247.2,190.5 L257.9,190.2 L275.9,188.3 L287.5,83.4 L296.7,190.7 L307.6,190.5 L326.2,190.5 L338.8,190.4 L357.0,189.8 L374.7,190.4 L385.9,189.8 L395.3,191.3 L406.0,190.7 L422.5,190.3 L432.0,190.8 L442.2,190.7 L456.5,190.3 L473.4,189.0 L482.9,190.7 L492.2,189.9 L505.0,190.1 L525.8,191.0 L547.5,190.7 L556.2,191.0 L574.1,190.0 L593.8,190.5 L604.4,190.2 L623.2,190.9 L644.1,189.3 L654.4,189.6 L673.0,189.3 L694.0,190.8 L704.0,190.6" /><circle class="dot-degraded" cx="287.5" cy="83.4" r="3" /><text class="axis" x="48" y="212">09/25</text><text class="axis" x="704" y="212" text-anchor="end">10/09</text><text class="axis" x="42" y="20" text-anchor="end">ms</text>
</svg>
