<svg xmlns="http://www.w3.org/2000/svg" viewBox="0 0 720 220" width="720" height="220" role="img" aria-label="Response time over time">
<style>
  :root { color-scheme: light dark; }
  .bg { fill: #ffffff; }
  .grid { stroke: #e5e7eb; stroke-width: 1; }
  .axis { fill: #6b7280; font-size: 10px; }
  .title { fill: #111827; font-size: 13px; font-weight: 600; }
  .sub { fill: #6b7280; font-size: 10px; }
  .line { stroke: #6366f1; stroke-width: 2; fill: none; stroke-linejoin: round; stroke-linecap: round; }
  .area { fill: url(#fade); }
  .dot-degraded { fill: #f59e0b; }
  .dot-down { fill: #ef4444; }
  .empty { fill: #9ca3af; font-size: 12px; }
  @media (prefers-color-scheme: dark) {
    .bg { fill: #0b0f19; }
    .grid { stroke: #1f2937; }
    .axis, .sub { fill: #9ca3af; }
    .title { fill: #f3f4f6; }
    .line { stroke: #818cf8; }
  }
</style>
<defs>
  <linearGradient id="fade" x1="0" y1="0" x2="0" y2="1">
    <stop offset="0%" stop-color="#6366f1" stop-opacity="0.28" />
    <stop offset="100%" stop-color="#6366f1" stop-opacity="0" />
  </linearGradient>
</defs>
<rect class="bg" width="720" height="220" rx="8" />
<text class="title" x="48" y="18">LeeFi Pay — response time</text><text class="sub" x="704" y="18" text-anchor="end">mean 107 ms · peak 151 ms · 32 samples</text><line class="grid" x1="48" y1="194.0" x2="704" y2="194.0" /><text class="axis" x="42" y="197" text-anchor="end">0</text><line class="grid" x1="48" y1="152.5" x2="704" y2="152.5" /><text class="axis" x="42" y="155.5" text-anchor="end">750</text><line class="grid" x1="48" y1="111.0" x2="704" y2="111.0" /><text class="axis" x="42" y="114" text-anchor="end">1500</text><line class="grid" x1="48" y1="69.5" x2="704" y2="69.5" /><text class="axis" x="42" y="72.5" text-anchor="end">2250</text><line class="grid" x1="48" y1="28.0" x2="704" y2="28.0" /><text class="axis" x="42" y="31" text-anchor="end">3000</text><line class="grid" stroke-dasharray="4 4" x1="48" y1="55.7" x2="704" y2="55.7" /><path class="area" d="M48.0,188.1 L48.0,188.1 L66.3,187.9 L93.0,188.6 L109.1,187.9 L125.6,187.2 L145.5,187.5 L174.1,188.7 L190.5,187.9 L205.8,186.8 L225.0,187.2 L257.7,188.8 L292.3,187.8 L306.8,188.3 L335.3,189.0 L353.4,187.9 L368.0,189.4 L385.2,188.0 L413.9,186.8 L432.6,188.6 L447.4,186.9 L464.9,188.1 L494.9,189.1 L515.1,189.8 L544.3,188.6 L572.6,188.4 L590.7,188.9 L605.8,189.7 L622.9,188.7 L649.5,185.6 L664.7,186.8 L681.1,187.2 L704.0,187.6 L704.0,194.0 L48.0,194.0 Z" /><path class="line" d="M48.0,188.1 L66.3,187.9 L93.0,188.6 L109.1,187.9 L125.6,187.2 L145.5,187.5 L174.1,188.7 L190.5,187.9 L205.8,186.8 L225.0,187.2 L257.7,188.8 L292.3,187.8 L306.8,188.3 L335.3,189.0 L353.4,187.9 L368.0,189.4 L385.2,188.0 L413.9,186.8 L432.6,188.6 L447.4,186.9 L464.9,188.1 L494.9,189.1 L515.1,189.8 L544.3,188.6 L572.6,188.4 L590.7,188.9 L605.8,189.7 L622.9,188.7 L649.5,185.6 L664.7,186.8 L681.1,187.2 L704.0,187.6" /><text class="axis" x="48" y="212">09/25</text><text class="axis" x="704" y="212" text-anchor="end">10/04</text><text class="axis" x="42" y="20" text-anchor="end">ms</text>
</svg>
