<svg xmlns="http://www.w3.org/2000/svg" viewBox="0 0 720 220" width="720" height="220" role="img" aria-label="Response time over time">
<style>
  :root { color-scheme: light dark; }
  .bg { fill: #ffffff; }
  .grid { stroke: #e5e7eb; stroke-width: 1; }
  .axis { fill: #6b7280; font-size: 10px; }
  .title { fill: #111827; font-size: 13px; font-weight: 600; }
  .sub { fill: #6b7280; font-size: 10px; }
  .line { stroke: #6366f1; stroke-width: 2; fill: none; stroke-linejoin: round; stroke-linecap: round; }
  .area { fill: url(#fade); }
  .dot-degraded { fill: #f59e0b; }
  .dot-down { fill: #ef4444; }
  .empty { fill: #9ca3af; font-size: 12px; }
  @media (prefers-color-scheme: dark) {
    .bg { fill: #0b0f19; }
    .grid { stroke: #1f2937; }
    .axis, .sub { fill: #9ca3af; }
    .title { fill: #f3f4f6; }
    .line { stroke: #818cf8; }
  }
</style>
<defs>
  <linearGradient id="fade" x1="0" y1="0" x2="0" y2="1">
    <stop offset="0%" stop-color="#6366f1" stop-opacity="0.28" />
    <stop offset="100%" stop-color="#6366f1" stop-opacity="0" />
  </linearGradient>
</defs>
<rect class="bg" width="720" height="220" rx="8" />
<text class="title" x="48" y="18">Leesify Technologies — response time</text><text class="sub" x="704" y="18" text-anchor="end">mean 798 ms · peak 9246 ms · 42 samples</text><line class="grid" x1="48" y1="194.0" x2="704" y2="194.0" /><text class="axis" x="42" y="197" text-anchor="end">0</text><line class="grid" x1="48" y1="152.5" x2="704" y2="152.5" /><text class="axis" x="42" y="155.5" text-anchor="end">3750</text><line class="grid" x1="48" y1="111.0" x2="704" y2="111.0" /><text class="axis" x="42" y="114" text-anchor="end">7500</text><line class="grid" x1="48" y1="69.5" x2="704" y2="69.5" /><text class="axis" x="42" y="72.5" text-anchor="end">11250</text><line class="grid" x1="48" y1="28.0" x2="704" y2="28.0" /><text class="axis" x="42" y="31" text-anchor="end">15000</text><line class="grid" stroke-dasharray="4 4" x1="48" y1="166.3" x2="704" y2="166.3" /><path class="area" d="M48.0,188.6 L48.0,188.6 L61.5,188.8 L81.1,188.6 L92.8,188.5 L105.0,187.6 L119.6,188.4 L140.6,188.8 L152.6,188.8 L163.8,187.7 L178.0,188.1 L201.9,188.5 L227.3,188.2 L238.0,189.1 L258.9,188.7 L272.2,185.8 L282.9,188.1 L295.5,187.7 L316.6,186.6 L330.3,91.7 L341.2,188.2 L354.0,188.3 L376.0,172.3 L390.9,188.6 L412.3,186.7 L433.1,188.4 L446.4,188.4 L457.5,188.1 L470.0,188.3 L489.6,186.7 L500.7,186.9 L512.7,187.6 L529.5,188.2 L549.5,186.1 L560.8,187.6 L571.7,186.2 L586.8,186.9 L611.3,187.6 L636.8,188.3 L647.1,186.9 L668.2,186.8 L691.5,188.3 L704.0,187.6 L704.0,194.0 L48.0,194.0 Z" /><path class="line" d="M48.0,188.6 L61.5,188.8 L81.1,188.6 L92.8,188.5 L105.0,187.6 L119.6,188.4 L140.6,188.8 L152.6,188.8 L163.8,187.7 L178.0,188.1 L201.9,188.5 L227.3,188.2 L238.0,189.1 L258.9,188.7 L272.2,185.8 L282.9,188.1 L295.5,187.7 L316.6,186.6 L330.3,91.7 L341.2,188.2 L354.0,188.3 L376.0,172.3 L390.9,188.6 L412.3,186.7 L433.1,188.4 L446.4,188.4 L457.5,188.1 L470.0,188.3 L489.6,186.7 L500.7,186.9 L512.7,187.6 L529.5,188.2 L549.5,186.1 L560.8,187.6 L571.7,186.2 L586.8,186.9 L611.3,187.6 L636.8,188.3 L647.1,186.9 L668.2,186.8 L691.5,188.3 L704.0,187.6" /><circle class="dot-degraded" cx="330.3" cy="91.7" r="3" /><text class="axis" x="48" y="212">09/25</text><text class="axis" x="704" y="212" text-anchor="end">10/07</text><text class="axis" x="42" y="20" text-anchor="end">ms</text>
</svg>
