<svg xmlns="http://www.w3.org/2000/svg" viewBox="0 0 720 220" width="720" height="220" role="img" aria-label="Response time over time">
<style>
  :root { color-scheme: light dark; }
  .bg { fill: #ffffff; }
  .grid { stroke: #e5e7eb; stroke-width: 1; }
  .axis { fill: #6b7280; font-size: 10px; }
  .title { fill: #111827; font-size: 13px; font-weight: 600; }
  .sub { fill: #6b7280; font-size: 10px; }
  .line { stroke: #6366f1; stroke-width: 2; fill: none; stroke-linejoin: round; stroke-linecap: round; }
  .area { fill: url(#fade); }
  .dot-degraded { fill: #f59e0b; }
  .dot-down { fill: #ef4444; }
  .empty { fill: #9ca3af; font-size: 12px; }
  @media (prefers-color-scheme: dark) {
    .bg { fill: #0b0f19; }
    .grid { stroke: #1f2937; }
    .axis, .sub { fill: #9ca3af; }
    .title { fill: #f3f4f6; }
    .line { stroke: #818cf8; }
  }
</style>
<defs>
  <linearGradient id="fade" x1="0" y1="0" x2="0" y2="1">
    <stop offset="0%" stop-color="#6366f1" stop-opacity="0.28" />
    <stop offset="100%" stop-color="#6366f1" stop-opacity="0" />
  </linearGradient>
</defs>
<rect class="bg" width="720" height="220" rx="8" />
<text class="title" x="48" y="18">Leesify Technologies — response time</text><text class="sub" x="704" y="18" text-anchor="end">mean 815 ms · peak 9246 ms · 39 samples</text><line class="grid" x1="48" y1="194.0" x2="704" y2="194.0" /><text class="axis" x="42" y="197" text-anchor="end">0</text><line class="grid" x1="48" y1="152.5" x2="704" y2="152.5" /><text class="axis" x="42" y="155.5" text-anchor="end">3750</text><line class="grid" x1="48" y1="111.0" x2="704" y2="111.0" /><text class="axis" x="42" y="114" text-anchor="end">7500</text><line class="grid" x1="48" y1="69.5" x2="704" y2="69.5" /><text class="axis" x="42" y="72.5" text-anchor="end">11250</text><line class="grid" x1="48" y1="28.0" x2="704" y2="28.0" /><text class="axis" x="42" y="31" text-anchor="end">15000</text><line class="grid" stroke-dasharray="4 4" x1="48" y1="166.3" x2="704" y2="166.3" /><path class="area" d="M48.0,188.6 L48.0,188.6 L62.7,188.8 L84.2,188.6 L97.1,188.5 L110.4,187.6 L126.3,188.4 L149.3,188.8 L162.6,188.8 L174.8,187.7 L190.3,188.1 L216.5,188.5 L244.4,188.2 L256.0,189.1 L279.0,188.7 L293.5,185.8 L305.2,188.1 L319.0,187.7 L342.1,186.6 L357.1,91.7 L369.0,188.2 L383.1,188.3 L407.2,172.3 L423.5,188.6 L447.0,186.7 L469.7,188.4 L484.2,188.4 L496.4,188.1 L510.1,188.3 L531.5,186.7 L543.7,186.9 L556.9,187.6 L575.3,188.2 L597.1,186.1 L609.5,187.6 L621.4,186.2 L638.0,186.9 L664.8,187.6 L692.8,188.3 L704.0,186.9 L704.0,194.0 L48.0,194.0 Z" /><path class="line" d="M48.0,188.6 L62.7,188.8 L84.2,188.6 L97.1,188.5 L110.4,187.6 L126.3,188.4 L149.3,188.8 L162.6,188.8 L174.8,187.7 L190.3,188.1 L216.5,188.5 L244.4,188.2 L256.0,189.1 L279.0,188.7 L293.5,185.8 L305.2,188.1 L319.0,187.7 L342.1,186.6 L357.1,91.7 L369.0,188.2 L383.1,188.3 L407.2,172.3 L423.5,188.6 L447.0,186.7 L469.7,188.4 L484.2,188.4 L496.4,188.1 L510.1,188.3 L531.5,186.7 L543.7,186.9 L556.9,187.6 L575.3,188.2 L597.1,186.1 L609.5,187.6 L621.4,186.2 L638.0,186.9 L664.8,187.6 L692.8,188.3 L704.0,186.9" /><circle class="dot-degraded" cx="357.1" cy="91.7" r="3" /><text class="axis" x="48" y="212">09/25</text><text class="axis" x="704" y="212" text-anchor="end">10/06</text><text class="axis" x="42" y="20" text-anchor="end">ms</text>
</svg>
