<svg xmlns="http://www.w3.org/2000/svg" viewBox="0 0 720 220" width="720" height="220" role="img" aria-label="Response time over time">
<style>
  :root { color-scheme: light dark; }
  .bg { fill: #ffffff; }
  .grid { stroke: #e5e7eb; stroke-width: 1; }
  .axis { fill: #6b7280; font-size: 10px; }
  .title { fill: #111827; font-size: 13px; font-weight: 600; }
  .sub { fill: #6b7280; font-size: 10px; }
  .line { stroke: #6366f1; stroke-width: 2; fill: none; stroke-linejoin: round; stroke-linecap: round; }
  .area { fill: url(#fade); }
  .dot-degraded { fill: #f59e0b; }
  .dot-down { fill: #ef4444; }
  .empty { fill: #9ca3af; font-size: 12px; }
  @media (prefers-color-scheme: dark) {
    .bg { fill: #0b0f19; }
    .grid { stroke: #1f2937; }
    .axis, .sub { fill: #9ca3af; }
    .title { fill: #f3f4f6; }
    .line { stroke: #818cf8; }
  }
</style>
<defs>
  <linearGradient id="fade" x1="0" y1="0" x2="0" y2="1">
    <stop offset="0%" stop-color="#6366f1" stop-opacity="0.28" />
    <stop offset="100%" stop-color="#6366f1" stop-opacity="0" />
  </linearGradient>
</defs>
<rect class="bg" width="720" height="220" rx="8" />
<text class="title" x="48" y="18">Leesify App — response time</text><text class="sub" x="704" y="18" text-anchor="end">mean 330 ms · peak 5638 ms · 51 samples</text><line class="grid" x1="48" y1="194.0" x2="704" y2="194.0" /><text class="axis" x="42" y="197" text-anchor="end">0</text><line class="grid" x1="48" y1="152.5" x2="704" y2="152.5" /><text class="axis" x="42" y="155.5" text-anchor="end">1875</text><line class="grid" x1="48" y1="111.0" x2="704" y2="111.0" /><text class="axis" x="42" y="114" text-anchor="end">3750</text><line class="grid" x1="48" y1="69.5" x2="704" y2="69.5" /><text class="axis" x="42" y="72.5" text-anchor="end">5625</text><line class="grid" x1="48" y1="28.0" x2="704" y2="28.0" /><text class="axis" x="42" y="31" text-anchor="end">7500</text><line class="grid" stroke-dasharray="4 4" x1="48" y1="138.7" x2="704" y2="138.7" /><path class="area" d="M48.0,189.5 L48.0,189.5 L58.6,189.9 L74.1,189.7 L83.4,190.0 L93.0,189.0 L104.5,189.3 L121.1,190.4 L130.6,190.2 L139.4,190.1 L150.6,187.8 L169.5,190.8 L189.6,189.0 L198.0,190.4 L214.5,190.1 L225.0,186.3 L233.5,188.8 L243.4,189.0 L260.1,188.9 L270.9,69.2 L279.5,188.2 L289.6,188.8 L307.0,184.7 L318.7,188.8 L335.7,188.8 L352.1,188.9 L362.6,188.0 L371.3,189.8 L381.2,190.5 L396.7,189.9 L405.5,189.9 L414.9,189.0 L428.2,189.4 L444.0,188.2 L452.9,181.8 L461.5,188.2 L473.4,189.6 L492.8,190.1 L512.9,190.5 L521.0,187.6 L537.7,189.8 L556.1,190.5 L566.0,189.4 L583.4,189.9 L602.9,187.8 L612.5,189.5 L629.8,188.3 L649.3,189.8 L658.7,190.0 L675.4,190.0 L694.1,189.7 L704.0,188.5 L704.0,194.0 L48.0,194.0 Z" /><path class="line" d="M48.0,189.5 L58.6,189.9 L74.1,189.7 L83.4,190.0 L93.0,189.0 L104.5,189.3 L121.1,190.4 L130.6,190.2 L139.4,190.1 L150.6,187.8 L169.5,190.8 L189.6,189.0 L198.0,190.4 L214.5,190.1 L225.0,186.3 L233.5,188.8 L243.4,189.0 L260.1,188.9 L270.9,69.2 L279.5,188.2 L289.6,188.8 L307.0,184.7 L318.7,188.8 L335.7,188.8 L352.1,188.9 L362.6,188.0 L371.3,189.8 L381.2,190.5 L396.7,189.9 L405.5,189.9 L414.9,189.0 L428.2,189.4 L444.0,188.2 L452.9,181.8 L461.5,188.2 L473.4,189.6 L492.8,190.1 L512.9,190.5 L521.0,187.6 L537.7,189.8 L556.1,190.5 L566.0,189.4 L583.4,189.9 L602.9,187.8 L612.5,189.5 L629.8,188.3 L649.3,189.8 L658.7,190.0 L675.4,190.0 L694.1,189.7 L704.0,188.5" /><circle class="dot-degraded" cx="270.9" cy="69.2" r="3" /><text class="axis" x="48" y="212">09/25</text><text class="axis" x="704" y="212" text-anchor="end">10/10</text><text class="axis" x="42" y="20" text-anchor="end">ms</text>
</svg>
