<svg xmlns="http://www.w3.org/2000/svg" viewBox="0 0 720 220" width="720" height="220" role="img" aria-label="Response time over time">
<style>
  :root { color-scheme: light dark; }
  .bg { fill: #ffffff; }
  .grid { stroke: #e5e7eb; stroke-width: 1; }
  .axis { fill: #6b7280; font-size: 10px; }
  .title { fill: #111827; font-size: 13px; font-weight: 600; }
  .sub { fill: #6b7280; font-size: 10px; }
  .line { stroke: #6366f1; stroke-width: 2; fill: none; stroke-linejoin: round; stroke-linecap: round; }
  .area { fill: url(#fade); }
  .dot-degraded { fill: #f59e0b; }
  .dot-down { fill: #ef4444; }
  .empty { fill: #9ca3af; font-size: 12px; }
  @media (prefers-color-scheme: dark) {
    .bg { fill: #0b0f19; }
    .grid { stroke: #1f2937; }
    .axis, .sub { fill: #9ca3af; }
    .title { fill: #f3f4f6; }
    .line { stroke: #818cf8; }
  }
</style>
<defs>
  <linearGradient id="fade" x1="0" y1="0" x2="0" y2="1">
    <stop offset="0%" stop-color="#6366f1" stop-opacity="0.28" />
    <stop offset="100%" stop-color="#6366f1" stop-opacity="0" />
  </linearGradient>
</defs>
<rect class="bg" width="720" height="220" rx="8" />
<text class="title" x="48" y="18">Leesify Technologies — response time</text><text class="sub" x="704" y="18" text-anchor="end">mean 835 ms · peak 9246 ms · 36 samples</text><line class="grid" x1="48" y1="194.0" x2="704" y2="194.0" /><text class="axis" x="42" y="197" text-anchor="end">0</text><line class="grid" x1="48" y1="152.5" x2="704" y2="152.5" /><text class="axis" x="42" y="155.5" text-anchor="end">3750</text><line class="grid" x1="48" y1="111.0" x2="704" y2="111.0" /><text class="axis" x="42" y="114" text-anchor="end">7500</text><line class="grid" x1="48" y1="69.5" x2="704" y2="69.5" /><text class="axis" x="42" y="72.5" text-anchor="end">11250</text><line class="grid" x1="48" y1="28.0" x2="704" y2="28.0" /><text class="axis" x="42" y="31" text-anchor="end">15000</text><line class="grid" stroke-dasharray="4 4" x1="48" y1="166.3" x2="704" y2="166.3" /><path class="area" d="M48.0,188.6 L48.0,188.6 L64.4,188.8 L88.3,188.6 L102.6,188.5 L117.4,187.6 L135.1,188.4 L160.7,188.8 L175.4,188.8 L189.0,187.7 L206.2,188.1 L235.4,188.5 L266.3,188.2 L279.3,189.1 L304.8,188.7 L320.9,185.8 L334.0,188.1 L349.3,187.7 L375.1,186.6 L391.7,91.7 L404.9,188.2 L420.6,188.3 L447.4,172.3 L465.5,188.6 L491.6,186.7 L516.9,188.4 L533.0,188.4 L546.5,188.1 L561.8,188.3 L585.6,186.7 L599.2,186.9 L613.8,187.6 L634.3,188.2 L658.6,186.1 L672.3,187.6 L685.6,186.2 L704.0,186.9 L704.0,194.0 L48.0,194.0 Z" /><path class="line" d="M48.0,188.6 L64.4,188.8 L88.3,188.6 L102.6,188.5 L117.4,187.6 L135.1,188.4 L160.7,188.8 L175.4,188.8 L189.0,187.7 L206.2,188.1 L235.4,188.5 L266.3,188.2 L279.3,189.1 L304.8,188.7 L320.9,185.8 L334.0,188.1 L349.3,187.7 L375.1,186.6 L391.7,91.7 L404.9,188.2 L420.6,188.3 L447.4,172.3 L465.5,188.6 L491.6,186.7 L516.9,188.4 L533.0,188.4 L546.5,188.1 L561.8,188.3 L585.6,186.7 L599.2,186.9 L613.8,187.6 L634.3,188.2 L658.6,186.1 L672.3,187.6 L685.6,186.2 L704.0,186.9" /><circle class="dot-degraded" cx="391.7" cy="91.7" r="3" /><text class="axis" x="48" y="212">09/25</text><text class="axis" x="704" y="212" text-anchor="end">10/05</text><text class="axis" x="42" y="20" text-anchor="end">ms</text>
</svg>
