<svg xmlns="http://www.w3.org/2000/svg" viewBox="0 0 720 220" width="720" height="220" role="img" aria-label="Response time over time">
<style>
  :root { color-scheme: light dark; }
  .bg { fill: #ffffff; }
  .grid { stroke: #e5e7eb; stroke-width: 1; }
  .axis { fill: #6b7280; font-size: 10px; }
  .title { fill: #111827; font-size: 13px; font-weight: 600; }
  .sub { fill: #6b7280; font-size: 10px; }
  .line { stroke: #6366f1; stroke-width: 2; fill: none; stroke-linejoin: round; stroke-linecap: round; }
  .area { fill: url(#fade); }
  .dot-degraded { fill: #f59e0b; }
  .dot-down { fill: #ef4444; }
  .empty { fill: #9ca3af; font-size: 12px; }
  @media (prefers-color-scheme: dark) {
    .bg { fill: #0b0f19; }
    .grid { stroke: #1f2937; }
    .axis, .sub { fill: #9ca3af; }
    .title { fill: #f3f4f6; }
    .line { stroke: #818cf8; }
  }
</style>
<defs>
  <linearGradient id="fade" x1="0" y1="0" x2="0" y2="1">
    <stop offset="0%" stop-color="#6366f1" stop-opacity="0.28" />
    <stop offset="100%" stop-color="#6366f1" stop-opacity="0" />
  </linearGradient>
</defs>
<rect class="bg" width="720" height="220" rx="8" />
<text class="title" x="48" y="18">Tixvora — response time</text><text class="sub" x="704" y="18" text-anchor="end">mean 661 ms · peak 9131 ms · 36 samples</text><line class="grid" x1="48" y1="194.0" x2="704" y2="194.0" /><text class="axis" x="42" y="197" text-anchor="end">0</text><line class="grid" x1="48" y1="152.5" x2="704" y2="152.5" /><text class="axis" x="42" y="155.5" text-anchor="end">3750</text><line class="grid" x1="48" y1="111.0" x2="704" y2="111.0" /><text class="axis" x="42" y="114" text-anchor="end">7500</text><line class="grid" x1="48" y1="69.5" x2="704" y2="69.5" /><text class="axis" x="42" y="72.5" text-anchor="end">11250</text><line class="grid" x1="48" y1="28.0" x2="704" y2="28.0" /><text class="axis" x="42" y="31" text-anchor="end">15000</text><line class="grid" stroke-dasharray="4 4" x1="48" y1="166.3" x2="704" y2="166.3" /><path class="area" d="M48.0,190.1 L48.0,190.1 L64.4,189.8 L88.3,189.8 L102.6,190.0 L117.4,189.6 L135.1,190.4 L160.7,189.8 L175.4,190.1 L189.0,190.9 L206.2,188.6 L235.4,191.0 L266.3,190.0 L279.3,190.5 L304.8,190.3 L320.9,189.0 L334.0,188.7 L349.3,189.5 L375.1,185.5 L391.7,93.0 L404.9,190.1 L420.6,190.0 L447.4,183.5 L465.5,188.8 L491.6,188.6 L516.9,190.7 L533.0,190.0 L546.5,191.1 L561.8,189.3 L585.6,189.4 L599.2,189.8 L613.8,190.2 L634.3,190.3 L658.6,187.3 L672.3,187.8 L685.6,187.3 L704.0,189.4 L704.0,194.0 L48.0,194.0 Z" /><path class="line" d="M48.0,190.1 L64.4,189.8 L88.3,189.8 L102.6,190.0 L117.4,189.6 L135.1,190.4 L160.7,189.8 L175.4,190.1 L189.0,190.9 L206.2,188.6 L235.4,191.0 L266.3,190.0 L279.3,190.5 L304.8,190.3 L320.9,189.0 L334.0,188.7 L349.3,189.5 L375.1,185.5 L391.7,93.0 L404.9,190.1 L420.6,190.0 L447.4,183.5 L465.5,188.8 L491.6,188.6 L516.9,190.7 L533.0,190.0 L546.5,191.1 L561.8,189.3 L585.6,189.4 L599.2,189.8 L613.8,190.2 L634.3,190.3 L658.6,187.3 L672.3,187.8 L685.6,187.3 L704.0,189.4" /><circle class="dot-degraded" cx="391.7" cy="93.0" r="3" /><text class="axis" x="48" y="212">09/25</text><text class="axis" x="704" y="212" text-anchor="end">10/05</text><text class="axis" x="42" y="20" text-anchor="end">ms</text>
</svg>
